<mxfile host="app.diagrams.net" modified="2023-11-18T06:37:12.540Z" agent="Mozilla/5.0 (Macintosh; Intel Mac OS X 10_15_7) AppleWebKit/537.36 (KHTML, like Gecko) Chrome/119.0.0.0 Safari/537.36" version="22.1.3" etag="Ih6a3PS-RfpIn13vdqzN" type="github">
  <diagram name="第 1 页" id="1hjw_7mJ73WAAuBP-OiC">
    <mxGraphModel>
      <root>
        <mxCell id="0" />
        <mxCell id="1" parent="0" />
      </root>
    </mxGraphModel>
  </diagram>
</mxfile>
